<mxfile host="app.diagrams.net" modified="2023-07-20T19:16:28.349Z" agent="Mozilla/5.0 (X11; Linux x86_64) AppleWebKit/537.36 (KHTML, like Gecko) Chrome/108.0.0.0 Safari/537.36" etag="vGysQAPjCNsvitw3nmXu" version="21.6.5" type="device">
  <diagram name="Page-1" id="8VnP3ESmi1vNXcQW-3n-">
    <mxGraphModel dx="1195" dy="644" grid="1" gridSize="10" guides="1" tooltips="1" connect="1" arrows="1" fold="1" page="1" pageScale="1" pageWidth="850" pageHeight="1100" math="1" shadow="0">
      <root>
        <mxCell id="0" />
        <mxCell id="1" parent="0" />
        <mxCell id="iK3IB-QW_0rAVhGZKx-B-1" value="" style="group;rotation=-180;" vertex="1" connectable="0" parent="1">
          <mxGeometry x="289" y="220" width="136" height="30" as="geometry" />
        </mxCell>
        <mxCell id="iK3IB-QW_0rAVhGZKx-B-2" value="" style="whiteSpace=wrap;html=1;aspect=fixed;fillColor=#000000;rotation=-180;" vertex="1" parent="iK3IB-QW_0rAVhGZKx-B-1">
          <mxGeometry x="116" y="4" width="20" height="20" as="geometry" />
        </mxCell>
        <mxCell id="iK3IB-QW_0rAVhGZKx-B-3" value="" style="endArrow=none;html=1;rounded=0;startArrow=classic;startFill=1;" edge="1" parent="iK3IB-QW_0rAVhGZKx-B-1">
          <mxGeometry width="50" height="50" relative="1" as="geometry">
            <mxPoint x="117" y="15" as="sourcePoint" />
            <mxPoint x="70" y="15" as="targetPoint" />
          </mxGeometry>
        </mxCell>
        <mxCell id="iK3IB-QW_0rAVhGZKx-B-4" value="" style="shape=offPageConnector;whiteSpace=wrap;html=1;direction=south;size=0.2;fillColor=none;container=0;rotation=-180;" vertex="1" parent="iK3IB-QW_0rAVhGZKx-B-1">
          <mxGeometry width="70" height="30" as="geometry" />
        </mxCell>
        <mxCell id="iK3IB-QW_0rAVhGZKx-B-9" style="edgeStyle=orthogonalEdgeStyle;rounded=0;orthogonalLoop=1;jettySize=auto;html=1;exitX=1;exitY=0.5;exitDx=0;exitDy=0;entryX=0.5;entryY=0;entryDx=0;entryDy=0;entryPerimeter=0;endArrow=box;endFill=0;strokeColor=default;shadow=0;" edge="1" parent="1" source="iK3IB-QW_0rAVhGZKx-B-5" target="iK3IB-QW_0rAVhGZKx-B-8">
          <mxGeometry relative="1" as="geometry" />
        </mxCell>
        <mxCell id="iK3IB-QW_0rAVhGZKx-B-5" value="&lt;font style=&quot;font-size: 21px;&quot;&gt;Z-domain Transfer Function&lt;/font&gt;" style="rounded=1;whiteSpace=wrap;html=1;" vertex="1" parent="1">
          <mxGeometry x="425" y="183" width="190" height="104" as="geometry" />
        </mxCell>
        <mxCell id="iK3IB-QW_0rAVhGZKx-B-10" style="edgeStyle=orthogonalEdgeStyle;rounded=0;orthogonalLoop=1;jettySize=auto;html=1;entryX=0.5;entryY=1;entryDx=0;entryDy=0;entryPerimeter=0;endArrow=box;endFill=0;" edge="1" parent="1" source="iK3IB-QW_0rAVhGZKx-B-7" target="iK3IB-QW_0rAVhGZKx-B-8">
          <mxGeometry relative="1" as="geometry" />
        </mxCell>
        <mxCell id="iK3IB-QW_0rAVhGZKx-B-7" value="&lt;font style=&quot;font-size: 21px;&quot;&gt;Z-domain Transfer Function&lt;/font&gt;" style="rounded=1;whiteSpace=wrap;html=1;" vertex="1" parent="1">
          <mxGeometry x="425" y="360" width="190" height="104" as="geometry" />
        </mxCell>
        <mxCell id="iK3IB-QW_0rAVhGZKx-B-8" value="" style="verticalLabelPosition=bottom;verticalAlign=top;html=1;shape=mxgraph.flowchart.summing_function;" vertex="1" parent="1">
          <mxGeometry x="700" y="290" width="60" height="60" as="geometry" />
        </mxCell>
        <mxCell id="iK3IB-QW_0rAVhGZKx-B-14" value="" style="whiteSpace=wrap;html=1;aspect=fixed;fillColor=#000000;" vertex="1" parent="1">
          <mxGeometry x="726.5" y="282" width="7" height="7" as="geometry" />
        </mxCell>
        <mxCell id="iK3IB-QW_0rAVhGZKx-B-16" value="" style="whiteSpace=wrap;html=1;aspect=fixed;fillColor=#000000;" vertex="1" parent="1">
          <mxGeometry x="726.5" y="350" width="7" height="7" as="geometry" />
        </mxCell>
        <mxCell id="iK3IB-QW_0rAVhGZKx-B-25" value="" style="whiteSpace=wrap;html=1;aspect=fixed;fillColor=#000000;rotation=-180;" vertex="1" parent="1">
          <mxGeometry x="405" y="402" width="20" height="20" as="geometry" />
        </mxCell>
        <mxCell id="iK3IB-QW_0rAVhGZKx-B-26" value="" style="endArrow=none;html=1;rounded=0;" edge="1" parent="1">
          <mxGeometry width="50" height="50" relative="1" as="geometry">
            <mxPoint x="380" y="412" as="sourcePoint" />
            <mxPoint x="380" y="235" as="targetPoint" />
          </mxGeometry>
        </mxCell>
        <mxCell id="iK3IB-QW_0rAVhGZKx-B-30" value="" style="endArrow=none;html=1;rounded=0;startArrow=classic;startFill=1;" edge="1" parent="1">
          <mxGeometry width="50" height="50" relative="1" as="geometry">
            <mxPoint x="405" y="412" as="sourcePoint" />
            <mxPoint x="380" y="412" as="targetPoint" />
          </mxGeometry>
        </mxCell>
        <mxCell id="iK3IB-QW_0rAVhGZKx-B-31" value="&lt;font style=&quot;font-size: 18px;&quot;&gt;$$&amp;nbsp; H(z) = P$$&lt;/font&gt;" style="text;html=1;strokeColor=none;fillColor=none;align=center;verticalAlign=middle;whiteSpace=wrap;rounded=0;" vertex="1" parent="1">
          <mxGeometry x="425" y="110" width="190" height="90" as="geometry" />
        </mxCell>
        <mxCell id="iK3IB-QW_0rAVhGZKx-B-32" value="&lt;font style=&quot;font-size: 18px;&quot;&gt;$$&amp;nbsp; H(z) = \cfrac{I \cdot T_s}{z-1}$$&lt;/font&gt;" style="text;html=1;strokeColor=none;fillColor=none;align=center;verticalAlign=middle;whiteSpace=wrap;rounded=0;" vertex="1" parent="1">
          <mxGeometry x="400" y="464" width="190" height="90" as="geometry" />
        </mxCell>
        <mxCell id="iK3IB-QW_0rAVhGZKx-B-37" value="" style="group" vertex="1" connectable="0" parent="1">
          <mxGeometry x="760" y="305" width="136" height="30" as="geometry" />
        </mxCell>
        <mxCell id="iK3IB-QW_0rAVhGZKx-B-38" value="" style="whiteSpace=wrap;html=1;aspect=fixed;fillColor=#000000;" vertex="1" parent="iK3IB-QW_0rAVhGZKx-B-37">
          <mxGeometry y="6" width="20" height="20" as="geometry" />
        </mxCell>
        <mxCell id="iK3IB-QW_0rAVhGZKx-B-39" value="" style="endArrow=none;html=1;rounded=0;" edge="1" parent="iK3IB-QW_0rAVhGZKx-B-37">
          <mxGeometry width="50" height="50" relative="1" as="geometry">
            <mxPoint x="19" y="15" as="sourcePoint" />
            <mxPoint x="66" y="15" as="targetPoint" />
          </mxGeometry>
        </mxCell>
        <mxCell id="iK3IB-QW_0rAVhGZKx-B-40" value="" style="shape=offPageConnector;whiteSpace=wrap;html=1;direction=north;size=0.2;fillColor=none;container=0;" vertex="1" parent="iK3IB-QW_0rAVhGZKx-B-37">
          <mxGeometry x="66" width="70" height="30" as="geometry" />
        </mxCell>
      </root>
    </mxGraphModel>
  </diagram>
</mxfile>
